<svg width="96" height="101" viewBox="0 0 96 101" fill="none" xmlns="http://www.w3.org/2000/svg">
<g opacity="0.1">
<path d="M40.9254 20.8014C39.9438 21.308 39.5588 22.5143 40.0653 23.4959C40.5719 24.4774 41.7783 24.8625 42.7598 24.3559C43.7414 23.8494 44.1265 22.643 43.6199 21.6614C43.1133 20.6799 41.907 20.2948 40.9254 20.8014Z" fill="white"/>
<path d="M64.6672 58.7383C64.3232 59.8161 63.2569 60.3664 62.1791 60.0224C61.1013 59.6784 60.5509 58.612 60.895 57.5343C61.239 56.4565 62.3053 55.9061 63.3831 56.2501C64.4151 56.5053 65.0113 57.6605 64.6672 58.7383Z" fill="white"/>
<path d="M42.6404 81.4715L50.3809 57.221L74.7202 64.9156L80.7836 45.9194L56.4873 38.0901L64.2278 13.8396L45.2316 7.77624L37.4022 32.0726L13.1517 24.3321L7.08838 43.3282L31.3388 51.0687L23.6442 75.4081L42.6404 81.4715Z" fill="#7A9E9F"/>
<path d="M50.9671 92.5911L58.7964 68.2948L83.0469 76.0352L89.0644 56.9502L64.8139 49.2097L72.5544 24.9592L53.5124 18.807L45.8178 43.1463L21.4326 35.3628L15.415 54.4479L39.6655 62.1884L31.925 86.4388L50.9671 92.5911Z" stroke="#2A3739" stroke-width="2" stroke-miterlimit="10" stroke-linecap="round" stroke-linejoin="round"/>
</g>
</svg>
